<?xml version="1.0" encoding="UTF-8"?>
<svg width="82px" height="68px" viewBox="0 0 82 68" version="1.1" xmlns="http://www.w3.org/2000/svg" xmlns:xlink="http://www.w3.org/1999/xlink">
    <!-- Generator: Sketch 47 (45396) - http://www.bohemiancoding.com/sketch -->
    <title>Fill 10</title>
    <desc>Created with Sketch.</desc>
    <defs></defs>
    <g id="Page-1" stroke="none" stroke-width="1" fill="none" fill-rule="evenodd">
        <g id="03" transform="translate(-570.000000, -542.000000)" stroke="#9013FE" fill="#FFFFFF">
            <path d="M624.469984,588.375684 C627.675129,589.545211 631.899616,589.230389 634.272387,588.340655 C637.562477,587.107199 641.229566,583.645467 643.560302,580.971885 C645.890601,578.298742 649.592281,573.225679 650.689124,574.32296 C651.785966,575.419803 645.205786,585.359256 643.491996,587.415454 C643.491996,587.415454 638.076526,593.105024 631.838753,593.03628 C625.60098,592.967974 623.818446,592.556384 623.818446,592.556384 C623.818446,592.556384 622.790347,594.475531 621.145302,595.983963 C619.500257,597.491958 618.197619,598.177211 618.471721,599.34236 C618.745822,600.507947 620.939507,602.56502 619.706052,604.277933 C618.471721,605.991723 615.524476,607.705075 611.89154,607.911307 C608.258604,608.116664 607.02471,608.185409 606.88766,606.951515 C606.750171,605.717622 606.973043,605.408929 606.973043,605.408929 C606.973043,605.408929 605.430895,605.974646 602.500289,605.872187 C599.569682,605.768851 597.101895,606.540363 596.228362,604.946548 C595.353953,603.35317 597.204793,602.478761 598.027972,602.221736 C598.850276,601.96515 603.219695,602.221736 604.248231,602.067609 C605.27633,601.913044 606.201969,601.913044 606.150739,601.501892 C606.099071,601.09074 603.014338,599.445695 601.832112,597.74942 C600.649448,596.052707 598.387457,593.379126 598.387457,593.379126 C598.387457,593.379126 595.765543,599.2399 595.045698,601.347765 C594.325854,603.45563 593.503551,604.484166 593.452321,605.101113 C593.400653,605.717622 594.069267,606.951515 593.143191,607.773819 C592.21799,608.59656 589.698973,608.648228 588.567977,608.545331 C587.436981,608.442871 586.151858,608.236638 586.100628,606.746158 C586.048523,605.254802 587.231186,605.254802 587.899801,604.689085 C588.567977,604.123806 589.955998,599.805617 590.470485,598.622954 C590.984534,597.440728 592.937834,592.762179 592.937834,591.78531 C592.937834,590.808441 593.452321,588.49522 592.937834,587.621248 C592.423784,586.747277 590.984534,586.438585 590.367587,585.616281 C589.750641,584.79354 589.750641,583.611314 588.927899,583.456749 C588.105595,583.302621 587.231186,583.919568 586.048523,583.816671 C584.866297,583.713773 579.468342,579.498482 578.131551,577.852999 C576.795198,576.207516 576.075354,575.488109 575.561304,575.282752 C575.046817,575.07652 571.808394,574.048859 571.345575,573.226117 C570.882756,572.403814 570.522833,570.244281 571.13978,569.576105 C571.756727,568.907928 573.45344,568.342211 574.276181,568.547568 C575.098485,568.753363 576.589841,569.31908 577.360915,569.936027 C578.131551,570.552536 580.753903,572.197581 581.524539,572.6604 C582.29605,573.123658 582.963789,574.048859 583.427046,573.740167 C583.889866,573.431912 583.581174,569.730232 585.020862,567.673597 C586.460112,565.616962 588.259285,564.845888 588.876231,563.972355 C589.493616,563.097946 589.750641,560.938851 589.390719,560.270237 C589.030796,559.602498 586.665907,556.157843 586.56301,555.386769 C586.460112,554.615695 586.717575,552.764417 586.717575,552.764417 C586.717575,552.764417 586.631316,551.290575 587.248701,550.673629 C587.865647,550.05712 588.310952,549.440173 588.310952,549.440173 C588.310952,549.440173 589.236591,547.932178 589.921844,547.760537 C590.607097,547.589333 591.018687,547.417691 591.018687,547.417691 C591.018687,547.417691 592.11553,543.647705 592.869527,543.33945 C593.623525,543.030758 594.240033,545.46483 594.61747,546.184236 C594.994469,546.90408 595.851363,546.458337 597.016513,546.869927 C598.181662,547.281079 599.757963,548.342892 600.546989,548.309177 C601.334702,548.275024 603.700029,546.355877 605.311359,545.84139 C606.921813,545.327341 608.978448,543.613552 608.601011,547.726384 C608.22445,551.839216 605.893714,554.752307 605.619175,555.780844 C605.345512,556.80938 604.488179,558.659783 603.185979,559.345473 C601.883342,560.030727 599.930042,561.847413 600.786499,564.897118 C601.643832,567.947698 603.151388,566.543039 607.298812,570.51882 C611.445797,574.494164 612.988382,576.722003 612.988382,576.722003 C616.484268,580.218326 620.459611,586.421508 624.469984,588.375684 Z" id="Fill-10"></path>
        </g>
    </g>
</svg>